<?xml version="1.0" encoding="utf-8"?>
<!-- Generator: Adobe Illustrator 19.0.1, SVG Export Plug-In . SVG Version: 6.00 Build 0)  -->
<svg version="1.1" id="Layer_1" xmlns="http://www.w3.org/2000/svg" xmlns:xlink="http://www.w3.org/1999/xlink" x="0px" y="0px"
	 viewBox="-179 322 253 150" style="enable-background:new -179 322 253 150;" xml:space="preserve">
<style type="text/css">
	.st0{fill:#FFFFFF;}
</style>
<g>
	<g>
		<g>
			<path class="st0" d="M-72.3,350.9c0.2,1.4-0.6,2.3-1.1,2.7c-1.4,1.2-3.9,1.7-5.7,0.4c-1.2-0.8-2.5-2.6-2.2-6.6
				c0.7-9.4,14.2-17.6,28.8-17.6c14.6,0,28.1,8.2,28.8,17.6c0.3,4-1,5.8-2.2,6.6c-1.9,1.3-4.4,0.8-5.7-0.4c-0.5-0.4-1.3-1.4-1.1-2.7
				l0,0c0-0.2-0.1-0.5-0.3-0.5c-0.2,0-0.4,0.1-0.4,0.3l0,0c-0.2,1.3,0.3,2.7,1.3,3.6c1.5,1.3,4.3,1.9,6.5,0.4c1.9-1.3,2.8-4,2.5-7.4
				c-0.4-5-4.1-10.9-9.6-14.1c-5.6-3.3-11.3-5-18.2-5c-6.9,0-15.9,2.4-21.4,5.7c-5.9,3.5-9.4,8.4-9.8,13.4c-0.3,3.5,0.6,6.1,2.6,7.4
				c2.2,1.5,5,0.9,6.5-0.4c1.1-0.9,1.6-2.3,1.4-3.6l0,0c0-0.2-0.2-0.4-0.4-0.3C-72.2,350.5-72.3,350.7-72.3,350.9L-72.3,350.9z"/>
		</g>
	</g>
	<g>
		<g>
			<path class="st0" d="M28,424.9c-0.2-2.5-1.8-4.8-4.2-6.2c-2.7-1.6-6.1-1.4-9.4,0.4c-0.2,0.1-0.2,0.3-0.1,0.5
				c0.1,0.2,0.3,0.2,0.5,0.1c3.1-1.7,6.2-1.9,8.7-0.4c2.2,1.2,3.6,3.5,3.7,5.8c0.1,3.3-1,8.5-11.1,10.2c-3,0.5-5.9,0.4-8.7-0.2
				c0-0.5,0-0.9,0-1.4c-0.3-3-2.6-5.9-5.6-7c-3.6-1.3-7.7-0.7-11.2,0.7c-0.8-0.5-1.6-1-2.4-1.6c-5.4-3.5-12.9-8.2-19.2-8.9
				c-4.6-0.5-8.2,1.4-9.9,2.8c-2,1.6-3.4,4-3.6,6.3c0,0.2,0.1,0.3,0.3,0.4c0.2,0,0.4-0.1,0.4-0.3c0.2-2.1,1.3-4,3.2-5.5
				c1.6-1.3,4.7-2.6,9.1-1.9c5.9,0.9,12.7,5.1,18.1,8.6c0.6,0.4,1.2,0.8,1.9,1.1c-0.7,0.4-1.3,0.7-1.9,1.1c-0.9,0.6-2.1,1.4-3.5,2.4
				c-0.3,0.2-0.6,0.4-1,0.7c-0.4-0.3-0.8-0.6-1.2-0.9c-11.4-8.3-21.3-6-25.1-1.1c-2.9,3.8-2,7.5-1.2,9.3c1.2,2.9,3.8,5.2,6.1,5.5
				c0.2,0,0.3-0.1,0.4-0.3c0-0.2-0.1-0.4-0.3-0.4c-2-0.2-4.4-2.4-5.5-5.1c-0.7-1.7-1.5-5.1,1.2-8.7c3.6-4.7,12.1-5.3,23.2,2.6
				c0.2,0.1,0.3,0.2,0.5,0.3c-1.5,1.1-3.1,2.1-4.6,3.1c-1.8-1.8-4-3-6.2-3.3c-2.8-0.3-4.2,0.5-5,1.3c-0.9,0.9-1.2,2.2-1,3.1
				c0.2,1,0.9,1.9,2,2.5c1,0.5,3.1,1.1,6.2-0.4c1.1-0.6,2.5-1.4,3.9-2.2c0.6,0.8,1.1,1.7,1.5,2.7c1.5,4.1,0.7,8.7-2,11.6
				c-4.7,5-12,6.2-17.7,2.8c-0.7-0.4-1.3-0.9-2-1.5c0-0.1,0-0.2,0-0.3c0.4-2.8-0.6-8.5-2.7-10.1c-0.6-0.5-1.3-0.6-2.1-0.3
				c-0.7,0.3-1.1,0.9-1.2,1.7c-0.2,2.4,2.2,6.6,5.1,9.5c-0.7,3.2-2.9,7.2-6.7,9.6c-0.1,0-0.1,0.1-0.1,0.1s-0.1,0-0.1-0.1
				c-3.8-2.4-6-6.4-6.7-9.6c2.9-2.8,5.4-7.1,5.2-9.5c-0.1-0.9-0.5-1.4-1.2-1.7c-0.7-0.3-1.4-0.2-2.1,0.3c-2.1,1.6-3.1,7.3-2.7,10.1
				c0,0.1,0,0.2,0,0.3c-0.6,0.6-1.3,1.1-2,1.5c-5.7,3.4-13,2.2-17.7-2.8c-2.7-2.8-3.5-7.5-2-11.6c0.4-1,0.9-1.9,1.5-2.7
				c1.4,0.9,2.7,1.7,3.9,2.2c3.1,1.6,5.3,0.9,6.2,0.4c1.1-0.6,1.8-1.5,2-2.5c0.1-0.9-0.1-2.2-1.1-3.1c-0.7-0.8-2.2-1.6-5-1.3
				c-2.3,0.3-4.5,1.5-6.2,3.3c-1.5-1-3.1-2-4.6-3.1c0.2-0.1,0.3-0.2,0.5-0.3c11.1-8,19.6-7.3,23.2-2.6c2.7,3.5,1.9,6.9,1.2,8.7
				c-1.1,2.6-3.5,4.8-5.5,5.1c-0.2,0-0.3,0.2-0.3,0.4c0,0.2,0.2,0.3,0.4,0.3c2.3-0.3,4.9-2.6,6.1-5.5c0.8-1.8,1.7-5.5-1.2-9.3
				c-3.7-4.9-13.7-7.2-25.1,1.1c-0.4,0.3-0.8,0.6-1.2,0.9c-0.3-0.2-0.6-0.4-0.9-0.7c-1.4-1-2.5-1.8-3.5-2.4
				c-0.6-0.4-1.2-0.8-1.9-1.1c0.6-0.4,1.3-0.7,1.9-1.1c5.4-3.5,12.2-7.7,18.1-8.6c4.3-0.6,7.4,0.6,9.1,1.9c1.9,1.5,3,3.4,3.2,5.5
				c0,0.2,0.2,0.3,0.4,0.3c0.2,0,0.3-0.2,0.3-0.4c-0.2-2.3-1.6-4.7-3.6-6.3c-1.7-1.4-5.3-3.4-9.9-2.8c-6.3,0.7-13.8,5.4-19.2,8.9
				c-0.9,0.6-1.7,1.1-2.4,1.6c-3.4-1.4-7.6-2-11.2-0.7c-3,1.1-5.3,4-5.6,7c0,0.5-0.1,1,0,1.4c-2.7,0.5-5.6,0.7-8.6,0.2
				c-10.1-1.7-11.2-6.9-11.1-10.2c0.1-2.2,1.6-4.6,3.7-5.8c2.5-1.4,5.6-1.3,8.7,0.4c0.2,0.1,0.4,0,0.5-0.1c0.1-0.2,0-0.4-0.1-0.5
				c-3.3-1.8-6.6-2-9.4-0.4c-2.4,1.4-4,3.7-4.2,6.2c-0.4,6.5,3.9,10.8,11.6,12.3c3.2,0.6,6.4,0.5,9.4-0.2c0.5,1.4,1.5,2.7,3,3.6
				c6.3,3.9,11.6,2.2,23.5-6.2c1.6,1.1,3.2,2.2,4.7,3.2c-1,1.1-1.8,2.4-2.3,3.7c-1.9,4.8-0.5,9.7,2.4,12.8c5,5.2,13.5,5.8,19.5,1.8
				c0.5-0.3,1-0.8,1.5-1.2c0.8,3.3,3.1,8.5,6.9,10.9c0.2,0.1,0.5,0.3,0.5,0.3c0,0,0.3-0.2,0.4-0.3c3.8-2.4,6.1-7.6,6.9-10.9
				c0.5,0.5,1,0.9,1.5,1.2c6,4,14.5,3.5,19.5-1.8c2.9-3,4.3-8,2.4-12.8c-0.5-1.3-1.3-2.6-2.3-3.7c1.5-1,3.2-2.1,4.7-3.2
				c11.9,8.4,17.2,10.1,23.5,6.2c1.5-0.9,2.5-2.2,3-3.6c3,0.6,6.1,0.8,9.4,0.2C24.2,435.7,28.5,431.4,28,424.9z M-28.9,439.6
				c-2.9,1.4-4.8,0.9-5.6,0.4c-0.9-0.5-1.5-1.2-1.6-2c-0.1-0.5,0-1.7,0.9-2.6c0.9-0.9,2.4-1.3,4.4-1.1c2.3,0.3,4.3,1.3,5.7,3
				C-26.5,438.3-27.8,439.1-28.9,439.6z M-74.2,434.4c2-0.2,3.5,0.1,4.4,1.1c0.9,0.9,0.9,2,0.9,2.5c-0.1,0.8-0.7,1.5-1.6,2
				c-0.9,0.5-2.8,1-5.6-0.4c-1.1-0.6-2.4-1.3-3.7-2.2C-78.4,435.8-76.4,434.7-74.2,434.4z M-111.8,433.7c0.3-2.8,2.4-5.4,5.2-6.5
				c3.3-1.2,7-0.7,10.2,0.5c-0.3,0.2-0.6,0.4-0.8,0.5l-0.2,0.1c-3.5,2.1-8.5,5.2-14.3,6.5C-111.8,434.6-111.8,434.2-111.8,433.7z
				 M-108.5,439.8c-1.3-0.8-2.3-1.7-2.8-2.9c6-1.4,11.1-4.6,14.7-6.6l0.7-0.4c0.5-0.3,1.1-0.6,1.8-1c0.8,0.4,1.6,0.8,2.2,1.3
				c0.9,0.6,2.1,1.4,3.5,2.4c0.2,0.2,0.5,0.4,0.8,0.5C-97.7,440.1-103,442.8-108.5,439.8z M-57,443.7c0.4-0.4,0.9-0.4,1.4-0.2
				c0.5,0.2,0.7,0.6,0.8,1.2c0.2,2.1-2,5.8-4.7,8.4C-59.8,450.3-58.8,445.2-57,443.7z M-45.5,453c-2.6-2.6-4.8-6.3-4.7-8.4
				c0.1-0.6,0.3-1,0.8-1.2c0.5-0.2,1-0.1,1.4,0.2C-46.2,445.2-45.2,450.3-45.5,453z M1.6,427.3c2.8,1,4.9,3.7,5.2,6.5
				c0,0.4,0,0.8,0,1.2C1,433.6-4,430.6-7.5,428.5l-0.2-0.1c-0.3-0.2-0.6-0.3-0.9-0.5C-5.4,426.6-1.7,426.1,1.6,427.3z M3.5,439.8
				c-5.5,3.1-10.8,0.4-20.8-6.8c0.3-0.2,0.5-0.4,0.8-0.5c1.4-1,2.5-1.8,3.5-2.4c0.7-0.4,1.4-0.9,2.2-1.3c0.6,0.4,1.3,0.7,1.8,1
				l0.7,0.4c3.5,2.1,8.7,5.2,14.7,6.6C5.7,438,4.8,439,3.5,439.8z"/>
			<path class="st0" d="M-42.7,368.3c1.9,4.9,7.9,9.2,15.6,7.8c3.1-0.6,5.3-2,6.9-3.6c0.7,1.2,1.7,2.4,2.9,3.6
				c3.1,3.1,9.5,6,16.6,5.3c2.6-0.2,5.9-1,9-3.1c9.8,6.4,18.3,10.2,26.6,7.4c4.8-1.6,8.6-5,9.7-9.5c0.9-3.8,0.2-7.9-1.8-10.5
				c-2.7-3.4-7.6-4.7-11.5-3.5c-2.9,0.9-5.1,2.9-6.1,5.4c-0.1,0.2,0,0.4,0.2,0.4c0.2,0.1,0.4,0,0.4-0.2c1-2.3,3.1-3.9,5.8-4.4
				c3.5-0.7,7.3,0.6,9.9,3.2c2.1,2.2,2.9,5.8,2.1,9.4c-1.1,4.3-4.3,7.6-8.8,9.1c-7.9,2.6-15.7-1.6-24.9-7.9c1.3-1.1,2.5-2.4,3.7-4
				c0.2-0.3,0.4-0.5,0.5-0.8c3.6,2.1,6.5,3.4,9,4.2c4.3,1.4,8.4,0.3,11.2-2.1c0.1-0.1,0.1-0.3,0-0.5c-0.1-0.1-0.3-0.2-0.5,0
				c-4.1,3.5-9,2.9-18.9-3.2c2.7-5.8,1.1-11.4-1.6-15c-4-5.3-10.8-7.5-16.8-5.4c-0.2,0.1-0.3,0.2-0.2,0.4c0.1,0.2,0.2,0.3,0.4,0.2
				c6.7-2.3,13.7,1.6,16,5.8c1.9,3.4,2.5,8.2,0.5,12.8c-2-1.3-4.2-2.8-6.6-4.5c-14.5-10.3-32.6-21-44-12.7
				C-43.8,357-44.6,363.5-42.7,368.3z M-20.2,371.2c-1.3-2.4-1.6-4.5-1-5.8c0.3-0.7,0.9-1,1.7-0.9c0.8,0.1,1.3,0.9,1.3,2
				C-18.1,367.8-18.7,369.6-20.2,371.2z M-37.2,352.9c10-7.2,27.8,3.4,42.1,13.5c2.7,1.9,5.1,3.5,7.2,4.8c-0.3,0.5-0.6,0.9-0.9,1.4
				c-1,1.3-2,2.5-3.1,3.4c-1.1-0.8-2.3-1.6-3.5-2.4c-2.1-1.5-4.3-3-6.6-4.5c-13-8.8-21-12-26-10.4c-2.2,0.7-3.8,2.3-4.8,5
				c-0.1,0.2,0,0.4,0.2,0.4c0.2,0.1,0.4,0,0.4-0.2c1-2.5,2.2-3.7,4-4.1c4.8-1.1,12.6,2.4,25.3,11c2.3,1.5,4.5,3.1,6.6,4.5
				c1,0.7,1.9,1.3,2.9,2c-2.5,1.7-5.1,2.7-7.4,3c-6.8,1-13-1.6-16.1-4.6c-1.2-1.2-2.2-2.4-2.9-3.7c1.6-1.9,2.3-4,2.3-5.4
				c-0.1-1.5-0.8-2.5-1.9-2.6c-1.1-0.1-1.9,0.3-2.4,1.3c-0.7,1.4-0.4,3.8,1.1,6.5c-1.4,1.3-3.4,2.3-6.2,2.9
				c-7.3,1.4-12.7-2.9-14.8-7.4C-43.4,363.1-43.2,357.2-37.2,352.9z"/>
			<path class="st0" d="M-67.4,352.4c-11.4-8.4-29.5,2.4-44,12.7c-2.4,1.7-4.6,3.2-6.6,4.5c-2-4.6-1.4-9.4,0.5-12.8
				c2.3-4.2,9.3-8.2,16-5.8c0.2,0.1,0.4,0,0.4-0.2c0.1-0.2,0-0.4-0.2-0.4c-6-2.1-12.8,0-16.8,5.4c-2.7,3.6-4.4,9.2-1.7,15
				c-9.9,6.1-14.8,6.7-18.9,3.2c-0.1-0.1-0.3-0.1-0.5,0c-0.1,0.1-0.1,0.3,0,0.5c2.8,2.4,7,3.5,11.2,2.1c2.4-0.8,5.3-2.1,9-4.2
				c0.2,0.3,0.3,0.5,0.5,0.8c1.1,1.6,2.4,2.9,3.7,4c-9.3,6.3-17.1,10.5-24.9,7.9c-4.5-1.5-7.7-4.8-8.8-9.1c-0.9-3.6-0.1-7.2,2.1-9.4
				c2.6-2.7,6.4-3.9,9.9-3.2c2.7,0.5,4.9,2.1,5.8,4.4c0.1,0.2,0.3,0.2,0.4,0.2c0.2-0.1,0.2-0.3,0.2-0.4c-1.1-2.5-3.3-4.5-6.1-5.4
				c-3.9-1.2-8.8,0.1-11.5,3.5c-2,2.6-2.8,6.7-1.8,10.5c1.1,4.5,4.9,7.9,9.7,9.5c8.3,2.8,16.8-1,26.6-7.4c3.1,2.1,6.4,2.9,9,3.1
				c7.1,0.6,13.4-2.2,16.6-5.3c1.2-1.2,2.2-2.4,2.9-3.6c1.5,1.6,3.8,3,6.9,3.6c7.6,1.5,13.7-2.9,15.6-7.8
				C-60.4,363.5-61.2,357-67.4,352.4z M-86.8,366.5c0-1.1,0.5-1.9,1.3-2c0.8-0.1,1.4,0.2,1.7,0.9c0.6,1.2,0.3,3.4-1,5.8
				C-86.3,369.6-86.9,367.8-86.8,366.5z M-63.4,367.1c-2,4.6-7.5,8.9-14.8,7.4c-2.8-0.5-4.8-1.6-6.2-2.9c1.5-2.7,1.7-5.1,1.1-6.5
				c-0.5-0.9-1.3-1.4-2.4-1.3c-1.1,0.1-1.8,1.2-1.9,2.6c-0.1,1.4,0.7,3.5,2.3,5.4c-0.7,1.2-1.7,2.5-2.9,3.7c-3,3-9.3,5.6-16.1,4.6
				c-2.4-0.3-5-1.3-7.4-3c0.9-0.6,1.9-1.3,2.9-2c2.1-1.5,4.3-3,6.6-4.5c12.7-8.5,20.5-12.1,25.3-11c1.8,0.4,3.1,1.7,4,4.1
				c0.1,0.2,0.3,0.2,0.4,0.2c0.2-0.1,0.3-0.2,0.2-0.4c-1-2.7-2.6-4.3-4.8-5c-4.9-1.5-12.9,1.7-26,10.4c-2.3,1.5-4.5,3.1-6.6,4.5
				c-1.2,0.8-2.4,1.6-3.5,2.4c-1.1-0.9-2.2-2.1-3.1-3.4c-0.3-0.5-0.6-0.9-0.9-1.4c2.2-1.3,4.5-2.9,7.2-4.8
				c14.3-10.2,32.1-20.7,42.1-13.5C-61.8,357.2-61.6,363.1-63.4,367.1z"/>
			<g>
				<g>
					<path class="st0" d="M-92.3,414.5c-6.8,5.8-19.8,9.4-33.8,9.4c-21.3,0-38.8-8-38.8-18c0-10,17.5-18.3,38.8-18.3
						c5,0,9.8,0.4,14.4,1.3l0,0c0.2,0,0.4-0.1,0.4-0.3c0-0.2-0.1-0.4-0.3-0.4l0,0c-4.6-0.9-12.6-2-17.6-2
						c-21.7,0-36.3,9.2-36.3,19.6c0,10.4,16.9,20.2,39.5,20c14.2-0.1,27.3-4.8,34.2-10.7l0,0c0.2-0.1,0.2-0.4,0-0.5
						C-91.9,414.4-92.2,414.4-92.3,414.5L-92.3,414.5z"/>
				</g>
				<g>
					<path class="st0" d="M-12.7,414.5c6.8,5.8,19.8,9.4,33.8,9.4c21.3,0,38.8-8,38.8-18c0-10-17.5-18.3-38.8-18.3
						c-5,0-9.8,0.4-14.4,1.3l0,0c-0.2,0-0.4-0.1-0.4-0.3c0-0.2,0.1-0.4,0.3-0.4l0,0c4.6-0.9,12.6-2,17.6-2
						c21.7,0,36.3,9.2,36.3,19.6c0,10.4-16.9,20.2-39.5,20c-14.2-0.1-27.3-4.8-34.2-10.7l0,0c-0.2-0.1-0.2-0.4,0-0.5
						C-13.1,414.4-12.8,414.4-12.7,414.5L-12.7,414.5z"/>
				</g>
			</g>
			<g>
				<path class="st0" d="M-33.2,356.3c2.1-2.1,3.6-4.5,3.6-6.9c0.2-8-8.4-14.2-22.9-13.9c-12.4,0.2-22.9,6.4-22.9,13.8
					c0,4.7,2.7,9.5,9.4,11.9c5.6,2,16.3,0,18.8-4.3l0,0c0.1-0.1,0-0.3-0.1-0.4c-0.1-0.1-0.3,0-0.4,0.1l0,0c-2.4,4.1-11.6,5.3-17,3.3
					c-5.9-2.2-9.6-6.3-9.6-10.7c0-7.1,9.1-13.3,21.6-12.9c11,0.3,22.1,5.3,22.1,12.9c0,2.3-1.1,4.6-3.1,6.6l0,0
					c-0.1,0.1-0.1,0.3,0,0.4C-33.5,356.4-33.3,356.4-33.2,356.3L-33.2,356.3z"/>
			</g>
		</g>
	</g>
</g>
<path class="st0" d="M-114.7,406.6c-1.9,0-3.5-0.8-4.7-2.3s-1.8-3.4-1.8-5.8c0-3.4,1.2-6.4,3.5-9c2.3-2.5,5.1-3.8,8.2-3.8
	c2,0,3.6,0.7,4.8,2.2s1.8,3.4,1.8,5.8c0,3.5-1.2,6.5-3.5,9S-111.5,406.6-114.7,406.6z M-112.8,405.4c2,0,3.7-1,5.1-2.9s2-4.3,2-7.2
	c0-2.4-0.5-4.4-1.6-6c-1.1-1.6-2.4-2.4-4-2.4c-2,0-3.7,1-5.1,2.9c-1.4,1.9-2.1,4.4-2.1,7.2c0,2.4,0.5,4.4,1.6,6
	C-115.8,404.7-114.4,405.4-112.8,405.4z"/>
<path class="st0" d="M-89.8,405.5l-2.2,0.9l0-0.4l0.1-1.1l0.1-1l0.7-6.6l0.1-0.7c0-0.4,0.1-0.8,0.1-1.1c0-0.9-0.3-1.4-0.9-1.4
	c-0.9,0-1.9,0.9-3.1,2.8c-1.2,1.8-1.9,3.6-2.1,5.2l-0.4,3.5l-2.2,0.9l0-0.4l0.1-1.1l0.1-1l0.8-6.8l0.1-0.8c0.1-0.6,0.1-1.1,0.1-1.5
	c0-0.6-0.2-0.9-0.5-0.9c-0.7,0-1.5,0.8-2.4,2.5c-0.2-0.2-0.3-0.3-0.3-0.5c0-0.6,0.5-1.4,1.6-2.4c1.1-1,1.9-1.5,2.5-1.5
	c0.8,0,1.3,0.5,1.3,1.6c0,0.3,0,0.6-0.1,1.1l-0.1,1.2l-0.1,1l-0.1,1l0.4-0.6c2.2-3.5,4.2-5.3,6.1-5.3c0.9,0,1.4,0.7,1.4,2
	c0,0.2,0,0.7-0.1,1.4l-0.1,1.3l-0.2,1.8c0.9-1.9,2-3.4,3.2-4.7s2.4-1.9,3.3-1.9c1,0,1.4,0.6,1.4,1.9c0,0.5-0.1,1.2-0.2,1.9l-0.8,5.4
	c-0.2,1.1-0.3,2-0.3,2.6c0,0.5,0.1,0.8,0.4,0.8c0.3,0,0.8-0.3,1.3-0.8c0.5-0.6,0.9-1.2,1.2-1.9c0.3,0.2,0.4,0.3,0.4,0.5
	c0,0.6-0.5,1.4-1.6,2.5s-2,1.6-2.6,1.6c-0.8,0-1.2-0.6-1.2-1.7c0-0.7,0.1-1.8,0.3-3.3l0.5-3.5c0-0.1,0.1-0.4,0.1-0.8
	c0-0.2,0.1-0.5,0.1-0.9s0.1-0.7,0.1-1c0-0.8-0.3-1.2-0.8-1.2c-0.9,0-2,0.9-3.2,2.8c-1.2,1.8-1.9,3.6-2.1,5.2L-89.8,405.5z"/>
<path class="st0" d="M-73.7,405.5l-2.2,0.9l0-0.4l0.1-1.1l0.1-1l0.8-6.8l0.1-0.8c0.1-0.6,0.1-1.1,0.1-1.5c0-0.6-0.2-0.9-0.5-0.9
	c-0.7,0-1.5,0.8-2.4,2.5c-0.2-0.2-0.3-0.3-0.3-0.5c0-0.6,0.5-1.4,1.6-2.4c1.1-1,1.9-1.5,2.5-1.5c0.8,0,1.3,0.5,1.3,1.6
	c0,0.3,0,0.6-0.1,1.1l-0.1,1.2l-0.1,1l-0.1,1c1.2-1.7,2.4-3.1,3.8-4.3c1.4-1.1,2.5-1.7,3.5-1.7c0.9,0,1.4,0.7,1.4,2
	c0,0.4-0.1,1-0.2,1.8l-0.8,5.5c-0.2,1.1-0.2,2-0.2,2.6c0,0.5,0.1,0.8,0.4,0.8c0.7,0,1.5-0.9,2.5-2.7c0.2,0.1,0.4,0.3,0.4,0.5
	c0,0.6-0.5,1.5-1.6,2.5s-2,1.5-2.7,1.5c-0.8,0-1.1-0.5-1.1-1.6c0-0.8,0.1-1.9,0.3-3.3l0.5-3.5c0.2-1.2,0.2-2.1,0.2-2.7
	c0-0.8-0.3-1.2-0.8-1.2c-1.2,0-2.5,0.8-3.8,2.5c-1.3,1.7-2,3.5-2.2,5.5L-73.7,405.5z"/>
<path class="st0" d="M-53.6,401.8c0.3,0.2,0.4,0.3,0.4,0.5c0,0.4-0.4,1-1.3,2.1c-1.1,1.4-2.2,2.1-3.2,2.1c-0.7,0-1.1-0.5-1.1-1.4
	c0-0.4,0.1-1.6,0.4-3.7l0.6-4l0.1-1l0.1-0.8c0-0.3,0.1-0.6,0.1-0.9c0-0.5-0.1-0.7-0.4-0.7c-0.8,0-1.6,0.8-2.4,2.5
	c-0.2-0.2-0.3-0.3-0.3-0.5c0-0.6,0.5-1.4,1.6-2.4c1.1-1,2-1.5,2.6-1.5c0.7,0,1.1,0.5,1.1,1.5c0,0.2,0,0.6-0.1,1.2l-0.1,1
	c0,0.1-0.1,0.5-0.2,1.2l-0.6,4.2l-0.1,0.9c-0.1,0.9-0.2,1.5-0.2,1.9c0,0.4,0.1,0.6,0.4,0.6C-55.3,404.5-54.5,403.6-53.6,401.8z
	 M-56.5,390.1l1.2-3c1.1-0.4,2-1.1,2.7-1.9c0.1,0.1,0.1,0.3,0.1,0.4C-52.4,387-53.8,388.5-56.5,390.1z"/>
<path class="st0" d="M-50.5,405.7l1.9-2l0.5,0.1c0.6,0.1,1.1,0.3,1.7,0.3c0.8-0.5,1.3-1.1,1.6-1.8s0.5-2,0.8-4l1.2-11
	c-2,0.1-3.6,0.7-4.9,1.6c-1.2,0.9-1.8,2.1-1.8,3.6c0,0.9,0.2,1.7,0.6,2.4l-2.4,2.1c-0.2-0.8-0.3-1.5-0.3-2.3c0-2.6,1.1-4.8,3.4-6.5
	s5.1-2.5,8.6-2.5c4.5,0,6.8,1.3,6.8,3.9c0,2.2-1.6,4-4.7,5.3c3.1,1.1,4.6,2.8,4.6,5.1c0,1.9-1,3.4-2.9,4.5c-1.9,1.1-4.5,1.7-7.6,1.7
	C-45.4,406.3-47.7,406.1-50.5,405.7z M-41.5,396.2l-0.2,2l-0.1,1.2c-0.2,1.5-0.5,2.5-0.9,3.1c-0.4,0.6-1.3,1.2-2.6,1.9
	c1.9,0.3,3.8,0.5,5.7,0.5c3.1,0,4.6-1.2,4.6-3.6c0-1-0.4-2.1-1.3-3c-0.8-1-1.9-1.6-3.1-2l-0.4,0l-0.7,0l-0.6,0L-41.5,396.2z
	 M-40.5,387.2l-0.9,7.7c0.6,0,1.1,0.1,1.5,0.1c0.5,0,1,0,1.7-0.1c2.1-1.2,3.1-2.6,3.1-4.3C-35.1,388.4-36.9,387.2-40.5,387.2z"/>
<path class="st0" d="M-26.9,406.4c-2.2,0-3.3-1.5-3.3-4.4c0-2.3,0.9-4.6,2.6-6.8c1.7-2.2,3.5-3.3,5.3-3.3c2.2,0,3.3,1.5,3.3,4.4
	c0,2.4-0.9,4.6-2.6,6.8S-25.1,406.4-26.9,406.4z M-25.2,404.8c1.1,0,2.1-0.6,2.8-1.9s1.1-2.8,1.1-4.7c0-3-0.9-4.6-2.8-4.6
	c-1.1,0-2,0.6-2.8,1.9c-0.8,1.3-1.1,2.8-1.1,4.7C-28,403.3-27,404.8-25.2,404.8z"/>
<path class="st0" d="M-14.1,406.4c-2.2,0-3.3-1.5-3.3-4.4c0-2.3,0.9-4.6,2.6-6.8c1.7-2.2,3.5-3.3,5.3-3.3c2.2,0,3.3,1.5,3.3,4.4
	c0,2.4-0.9,4.6-2.6,6.8S-12.2,406.4-14.1,406.4z M-12.3,404.8c1.1,0,2.1-0.6,2.8-1.9s1.1-2.8,1.1-4.7c0-3-0.9-4.6-2.8-4.6
	c-1.1,0-2,0.6-2.8,1.9c-0.8,1.3-1.1,2.8-1.1,4.7C-15.1,403.3-14.2,404.8-12.3,404.8z"/>
<path class="st0" d="M-0.5,396.8c0.7-1.4,1.7-2.5,2.8-3.4s2.1-1.4,3.1-1.4c1.2,0,1.9,0.6,1.9,1.9c0,1.2-0.5,2.4-1.6,3.4
	c-1,1-2.4,1.8-4.1,2.2c1.9,3.3,3.2,5,4.1,5c0.7,0,1.3-0.6,2.1-1.7c0.2,0.2,0.3,0.3,0.3,0.5c0,0.5-0.4,1.1-1.3,1.9s-1.6,1.2-2.2,1.2
	c-1,0-2.6-2-5-6.2l-0.4-0.7l-0.6,6l-2.2,0.9l0-0.4l0.1-1.1l0.1-1l1.4-12.8c0.3-3,1.5-5.6,3.4-7.8c1.9-2.1,4-3.2,6.4-3.2
	c0.5,0,1,0.1,1.4,0.2l-2.2,2.1c-0.6-0.2-1.1-0.2-1.6-0.2c-2.9,0-4.6,2.3-5.1,6.8L-0.5,396.8z M-0.8,399.1c1.6,0,2.9-0.4,3.9-1.1
	s1.6-1.6,1.6-2.6c0-1.1-0.4-1.6-1.1-1.6c-0.7,0-1.4,0.5-2.3,1.5C0.5,396.3-0.2,397.6-0.8,399.1z"/>
<path class="st0" d="M8.5,405.6l2-1.7c0.8,0.8,1.7,1.2,2.9,1.2c1.4,0,2.1-0.7,2.1-2c0-0.8-0.6-1.8-1.9-3.1l-0.8-0.9
	c-1.2-1.3-1.8-2.3-1.8-3.1c0-1.1,0.5-2.1,1.5-2.9c1-0.8,2.2-1.2,3.6-1.2c0.8,0,1.6,0.1,2.6,0.4l-1.8,1.6c-0.7-0.6-1.6-0.8-2.5-0.8
	c-1.1,0-1.6,0.4-1.6,1.3c0,0.6,0.6,1.6,1.8,2.8l0.9,1c1.3,1.4,2,2.5,2,3.4c0,1.2-0.6,2.3-1.8,3.3c-1.2,0.9-2.5,1.4-4.1,1.4
	C10.5,406.4,9.4,406.2,8.5,405.6z"/>
</svg>
